<?xml version="1.0" encoding="UTF-8"?>
<svg id="Layer_2" data-name="Layer 2" xmlns="http://www.w3.org/2000/svg" viewBox="0 0 238.77 238.77">
  <defs>
    <style>
      .cls-1 {
        fill: #e2ebdc;
        stroke-width: 0px;
      }
    </style>
  </defs>
  <g id="Layer_1-2" data-name="Layer 1">
    <path class="cls-1" d="M228.18,167.14h-2.7c-5.85,0-10.59-4.74-10.59-10.59v-26.57c0-5.85-4.74-10.59-10.59-10.59h-2.7c-5.85,0-10.59-4.74-10.59-10.59v-26.57c0-5.85-4.74-10.59-10.59-10.59h-2.7c-5.85,0-10.59-4.74-10.59-10.59v-26.57c0-5.85-4.74-10.59-10.59-10.59h-2.7c-5.85,0-10.59-4.74-10.59-10.59v-2.7c0-5.85-4.74-10.59-10.59-10.59h-26.57c-5.85,0-10.59,4.74-10.59,10.59v2.7c0,5.85-4.74,10.59-10.59,10.59h-2.7c-5.85,0-10.59,4.74-10.59,10.59v26.57c0,5.85-4.74,10.59-10.59,10.59h-2.7c-5.85,0-10.59,4.74-10.59,10.59v26.57c0,5.85-4.74,10.59-10.59,10.59h-2.7c-5.85,0-10.59,4.74-10.59,10.59v26.57c0,5.85-4.74,10.59-10.59,10.59h-2.7c-5.85,0-10.59,4.74-10.59,10.59v50.45c0,5.85,4.74,10.59,10.59,10.59h217.59c5.85,0,10.59-4.74,10.59-10.59v-50.45c0-5.85-4.74-10.59-10.59-10.59ZM212.24,199.24c0,7.18-5.82,13-13,13H39.53c-7.18,0-13-5.82-13-13h0c0-4.47,2.27-8.67,6.08-11.01,10.66-6.53,17.79-18.29,17.79-31.68v-5.07c0-4.47,2.27-8.67,6.08-11.01,10.66-6.53,17.79-18.29,17.79-31.68v-5.07c0-4.47,2.27-8.67,6.08-11.01,10.66-6.53,17.79-18.29,17.79-31.68v-5.07c0-4.48,2.29-8.68,6.11-11.02,2.21-1.35,4.26-2.93,6.13-4.7,5.06-4.78,12.92-4.78,17.97,0,1.87,1.77,3.92,3.35,6.13,4.7,3.82,2.34,6.11,6.54,6.11,11.02v5.07c0,13.39,7.13,25.15,17.79,31.68,3.81,2.33,6.08,6.54,6.08,11.01v5.07c0,13.39,7.13,25.15,17.79,31.68,3.81,2.33,6.08,6.54,6.08,11.01v5.07c0,13.39,7.13,25.15,17.79,31.68,3.81,2.33,6.08,6.54,6.08,11.01h0Z"/>
  </g>
</svg>