<?xml version="1.0" encoding="UTF-8"?>
<svg id="Layer_2" data-name="Layer 2" xmlns="http://www.w3.org/2000/svg" viewBox="0 0 240 240">
  <defs>
    <style>
      .cls-1 {
        fill: #e2ebdc;
        stroke-width: 0px;
      }
    </style>
  </defs>
  <g id="Layer_1-2" data-name="Layer 1">
    <g>
      <path class="cls-1" d="M0,10.54v51.83C0,68.2,4.78,72.91,10.67,72.91h26.23c20.37,0,36.89-16.32,36.89-36.46h0C73.78,16.32,57.27,0,36.89,0H10.67C4.78,0,0,4.72,0,10.54Z"/>
      <path class="cls-1" d="M0,170.08v59.38c0,5.82,4.78,10.54,10.67,10.54h201.95c15.12,0,27.38-12.11,27.38-27.06h0c0-14.94-12.26-27.06-27.38-27.06h-120.53c-5.89,0-10.67-4.72-10.67-10.54v-3.88c0-5.82,4.78-10.54,10.67-10.54h30.04c22.48,0,40.71-18.01,40.71-40.23h0c0-22.22-18.23-40.23-40.71-40.23h-30.04c-5.89,0-10.67,4.72-10.67,10.54v58c0,5.82-4.78,10.54-10.67,10.54H10.67c-5.89,0-10.67,4.72-10.67,10.54Z"/>
    </g>
  </g>
</svg>