<?xml version="1.0" encoding="UTF-8"?>
<svg id="Layer_2" data-name="Layer 2" xmlns="http://www.w3.org/2000/svg" viewBox="0 0 242.04 242.04">
  <defs>
    <style>
      .cls-1 {
        fill: #e2ebdc;
        stroke-width: 0px;
      }
    </style>
  </defs>
  <g id="Layer_1-2" data-name="Layer 1">
    <g>
      <path class="cls-1" d="M0,10.76v5.32c0,5.94,4.82,10.76,10.76,10.76h5.32c5.94,0,10.76,4.82,10.76,10.76v.58c0,5.94-4.82,10.76-10.76,10.76h-5.32c-5.94,0-10.76,4.82-10.76,10.76v171.6c0,5.94,4.82,10.76,10.76,10.76h171.6c5.94,0,10.76-4.82,10.76-10.76v-5.32c0-5.94-4.82-10.76-10.76-10.76H37.59c-5.94,0-10.76-4.82-10.76-10.76V59.69c0-5.94,4.82-10.76,10.76-10.76h.57c5.94,0,10.76-4.82,10.76-10.76v-.58c0-5.94,4.82-10.76,10.76-10.76h144.76c5.94,0,10.76,4.82,10.76,10.76v144.76c0,5.94-4.82,10.76-10.76,10.76h-.58c-5.94,0-10.76,4.82-10.76,10.76v.58c0,5.94,4.82,10.76,10.76,10.76h.58c5.94,0,10.76,4.82,10.76,10.76v5.32c0,5.94,4.82,10.76,10.76,10.76h5.32c5.94,0,10.76-4.82,10.76-10.76V10.76c0-5.94-4.82-10.76-10.76-10.76H10.76C4.82,0,0,4.82,0,10.76Z"/>
      <path class="cls-1" d="M171.02,103.88v56.38c0,5.94-4.82,10.76-10.76,10.76h-56.38c-5.94,0-10.76,4.82-10.76,10.76v.58c0,5.94,4.82,10.76,10.76,10.76h78.48c5.94,0,10.76-4.82,10.76-10.76v-78.48c0-5.94-4.82-10.76-10.76-10.76h-.58c-5.94,0-10.76,4.82-10.76,10.76Z"/>
      <path class="cls-1" d="M152.17,71.03h30.18c5.94,0,10.76-4.82,10.76-10.76v-.58c0-5.94-4.82-10.76-10.76-10.76H59.69c-5.94,0-10.76,4.82-10.76,10.76v122.67c0,5.94,4.82,10.76,10.76,10.76h.58c5.94,0,10.76-4.82,10.76-10.76v-100.57c0-5.94,4.82-10.76,10.76-10.76h70.39Z"/>
    </g>
  </g>
</svg>