<?xml version="1.0" encoding="UTF-8"?>
<svg id="Layer_2" data-name="Layer 2" xmlns="http://www.w3.org/2000/svg" viewBox="0 0 240.57 240.57">
  <defs>
    <style>
      .cls-1 {
        fill: #e2ebdc;
        stroke-width: 0px;
      }
    </style>
  </defs>
  <g id="Layer_1-2" data-name="Layer 1">
    <path class="cls-1" d="M198.6,35.05c-10.24,21.42-24.37,40.4-42.89,56.46-1.95,1.46-4.87,1.46-6.34-.97-.97-1.46-1.46-2.92-.97-4.38,3.41-9.25,6.82-17.52,9.26-27.26,1.46-5.84,2.44-11.68,3.41-17.52v-2.92c1.46-9.25,1.95-18.5.97-27.74,0-1.95-1.95-3.41-3.41-3.89-13.16-3.41-25.83-4.87-39.48-6.81-1.95,0-4.87.97-3.9,3.41,3.41,12.66,7.31,24.82,8.77,37.97.97,11.68,2.44,22.88,0,35.05-.49,3.89-6.82,3.41-8.29,0-9.75-23.85-23.4-45.27-42.89-62.79-1.46-.97-2.92-1.46-4.87-.97-.97,0-1.46.49-2.44.97-11.21,8.27-21.45,15.09-32.17,23.85-1.95,1.95-.49,4.38,1.46,5.35,8.29,3.89,16.08,7.79,23.88,13.63.97.49,1.46.49,2.44.97,11.7,8.76,22.42,17.04,30.71,29.2,1.46,1.95.49,3.41-.97,4.87-1.46.97-3.41,1.46-4.87.97-23.4-9.25-48.25-15.09-73.11-14.12-2.44,0-5.36.97-6.34,3.89-3.41,11.68-3.9,22.88-5.36,34.56-.49,2.92-2.44,5.84,0,7.79,2.92,2.92,7.31-.49,10.72-1.46,21.45-5.84,42.41-9.73,64.34-6.33,3.9.49,3.41,6.33,0,8.27-3.41,1.46-6.82,2.43-10.24,4.38-1.95,1.46-4.39,1.95-6.82,3.41-1.46.97-2.92,1.95-4.39,2.43-.49.49-1.46.97-1.95,1.46-.97.49-1.46.49-2.44.97-14.14,8.76-25.83,18.5-37.04,30.18-.97,1.46-1.46,2.92-.97,4.87,0,.97.49,1.95.97,2.92,8.77,10.71,15.11,21.42,23.88,31.64,1.95,1.95,4.39.49,5.36-1.46,2.92-6.33,5.85-11.68,9.75-17.52.49-.97.49-1.46.97-2.43,9.26-13.63,18.03-24.82,30.22-35.05.97-.97,2.44-1.95,3.9-2.43,3.41-.49,5.85,3.41,4.87,6.33-4.87,13.14-9.26,25.8-11.21,39.91-1.95,11.68-4.39,22.88-2.44,35.05.49,1.95,1.46,3.89,3.41,4.38,12.67,2.92,24.86,4.38,37.53,6.33,1.95,0,3.41.49,5.36-.49,1.46-.97.97-2.92.97-3.89-8.29-22.88-12.19-46.73-9.75-70.58,0-.97.97-1.95,1.46-2.92,2.44-1.46,5.85-.49,7.31,1.95.97,1.95,1.46,3.89,2.44,5.84.49.49.97,1.46,1.46,1.95,2.92,7.79,7.31,15.09,11.7,22.39,5.36,8.27,10.72,15.09,17.06,22.39,2.92,2.92,5.85,6.33,9.26,9.25,2.44,1.95,5.85,2.92,8.77.97,11.21-8.27,21.45-15.58,32.17-23.85,1.46-1.46.49-3.41-.49-4.38-21.93-11.2-41.92-24.34-58-43.81-2.92-3.41.97-7.3,4.39-6.81,4.87,0,9.26,3.41,14.14,4.87,5.85,1.95,11.21,3.41,17.06,4.87,3.9.97,8.29,1.95,12.19,2.43,11.21.97,21.93,3.89,33.14.97,1.46,0,3.9-.49,4.39-2.92,2.92-14.12,4.87-27.26,5.85-41.37.49-1.95-2.44-2.92-4.39-2.43-22.91,8.27-47.28,11.68-71.65,9.73-3.41-1.95-3.41-6.81,0-8.76,2.44-1.46,5.36-1.95,8.29-3.41.49-.49,1.46-.97,1.95-1.46,6.34-2.43,12.19-5.84,18.03-9.73,13.65-8.76,26.32-16.55,35.58-30.18.49-1.46.49-3.41,0-4.38-8.77-12.17-15.6-23.85-25.83-33.59-.97-.97-3.41-.49-3.9,1.95h0ZM105.99,124.12c-.97-8.27,3.41-16.55,12.19-18.01,8.29-.97,16.08,4.38,17.06,12.66,0,3.41-.49,7.3-2.92,10.22-3.9,5.35-10.72,7.3-16.57,4.87-4.39-1.46-8.29-4.87-9.75-9.73h0Z"/>
  </g>
</svg>