<?xml version="1.0" encoding="UTF-8"?>
<svg id="Layer_1" data-name="Layer 1" xmlns="http://www.w3.org/2000/svg" viewBox="0 0 1276.21 483.67">
  <defs>
    <style>
      .cls-1, .cls-2 {
        fill-rule: evenodd;
      }

      .cls-1, .cls-2, .cls-3 {
        fill: #e2ebde;
      }

      .cls-1, .cls-3 {
        stroke-width: 0px;
      }

      .cls-2 {
        stroke: #e2ebde;
        stroke-miterlimit: 10;
      }
    </style>
  </defs>
  <path class="cls-3" d="M1135.41,284.45c0-24.03,1.42-25.17,19.82-20.52,5.79,1.47,11.57,2.99,17.39,4.38,3.97.95,5.8,3.41,4.82,7.28-4.7,18.67,14.34,29.15,28.12,28.52,10.06-.46,18.19-5.51,23.9-13.78,4.91-7.12,3.99-14.12-1.72-20.61-7.43-8.45-16.86-11.52-27.86-11.54-20.89-.04-37.96-8.9-50.58-25.06-18.93-24.23-13.87-55.3,11.33-75.16,27.04-21.31,72.53-20.23,97.72,3.38,15.87,14.87,20.72,34,16.35,55.36-.87,4.23-3.35,6.13-7.67,5.1-9.26-2.2-18.52-4.43-27.77-6.7-3.71-.91-6.28-3.27-5.19-7.16,5.13-18.38-14.69-30.55-29.87-28.23-8.92,1.36-16.32,5.41-21.56,12.95-5.35,7.7-5.31,13.14.83,20.44,6.46,7.69,14.79,11.64,25.02,11.63,16.49-.01,31.46,4.59,44.1,15.58,28.16,24.46,27.74,59.09-.47,83.91-28.29,24.89-76.96,17.88-98.32-1.83-12.49-11.53-17.75-26.07-18.36-37.95Z"/>
  <path class="cls-3" d="M481.78,142.98c18.17.48,35.89,4.2,50.99,16.34,15.41,12.38,23.71,38.09,18.5,57.17-1.22,4.46-3.51,6.4-8.17,5.24-8.81-2.19-17.64-4.35-26.48-6.39-4.35-1-6.14-3.37-6.09-7.98.14-15.42-5.22-23.26-17.51-26.39-14.49-3.7-29.05,2.01-35.67,13.85-3.68,6.58-2.14,12.55,2.27,17.83,6.56,7.86,14.94,12.08,25.49,12.11,18.47.04,34.81,5.78,47.97,19.26,24.44,25.03,21.77,60.37-6.19,81.61-29.95,22.76-76.74,19.02-101.73-8.9-12.84-14.34-15.29-31.96-11.69-50.53.82-4.25,3.46-5.94,7.79-4.88,9.03,2.22,18.08,4.36,27.11,6.58,4.28,1.05,5.95,3.47,5.53,8.22-1.6,18.14,13.88,31.33,31.92,27.59,4.87-1.01,9.21-3.11,13.16-6.08,14.14-10.63,13.59-24.25-1.33-33.92-6.78-4.39-14.29-5.32-22.2-5.58-23.75-.78-42.06-11.47-54.02-31.97-10.33-17.7-9.59-35.9,1.71-52.76,13.66-20.4,33.48-30.32,58.68-30.44Z"/>
  <path class="cls-3" d="M1070.79,228.39c0-14.18-.15-28.36.03-42.53.29-22.73,14.67-39.4,36.1-42.56,5.32-.79,7.89.34,7.81,6.28-.58,44.51-.05,89.06-1.8,133.52-1.05,26.68-18.14,43.72-42.01,53.18-39.28,15.56-81.8-7.13-91.02-47.82-.63-2.79-1.02-5.68-1.1-8.54-1.3-43.17-1.24-86.36-1.26-129.55,0-7.57,1.08-8.31,8.82-6.89,20.14,3.71,33.81,19.52,34.12,39.89.45,29.67.56,59.35,1.06,89.02.34,20.08,20.49,31.69,37.12,21.53,8.27-5.05,11.97-12.76,11.98-22.33.02-14.4,0-28.8,0-43.2h.14Z"/>
  <path class="cls-3" d="M640.91,249.64c.39-63.15,45.34-108.38,99.18-107.2,18.99.42,36.63,5.99,52.64,16.32,6.4,4.13,6.45,5.19,1.34,10.43-7.27,7.44-14.85,14.6-21.79,22.34-4.18,4.66-8.22,5.31-14.03,3.44-20.98-6.78-39.38-1.39-54.98,13.54-15.8,15.12-19.08,33.11-11.1,53.46,7.73,19.72,22.01,29.79,43.09,30.52,7.14.25,14.23-.26,21.04-2.27,4.25-1.26,7.04-.21,9.98,2.84,7.98,8.3,16.02,16.56,24.42,24.43,4.33,4.05,3.46,6.3-1.16,8.91-29.63,16.71-60.47,18.9-91.12,4.63-37.37-17.4-55.69-48.25-57.51-81.36Z"/>
  <path class="cls-3" d="M819.08,241.76c0-29.23-.03-58.45.02-87.68.02-10.54,1.32-11.75,11.98-11.77,6.42-.01,12.84-.02,19.26.04,9.95.09,11.66,1.74,11.67,11.61.02,40.3-.02,80.6-.04,120.89,0,5.09.26,10.2-.06,15.27-.37,5.89,2.26,7.67,7.86,7.63,25.02-.18,50.04-.08,75.06-.07,9.63,0,11.27,1.57,11.35,11.09.06,7.53-.05,15.06,0,22.58.03,5.91-2.54,9.14-8.73,9.13-39.86-.02-79.71-.01-119.57,0-6.56,0-8.76-3.47-8.73-9.72.15-29.67.07-59.34.07-89.01h-.12Z"/>
  <path class="cls-3" d="M574.18,241.31c0-29.22-.02-58.44,0-87.66,0-10.09,1.3-11.33,11.59-11.35,7.75-.02,15.5-.05,23.24.05,8.62.11,10.54,2.14,10.54,11.42.02,55.12-.01,110.24-.03,165.36,0,4.21,0,8.41-.03,12.62-.05,5.64-2.81,8.66-8.56,8.67-9.3.02-18.6.13-27.89-.02-7.14-.11-8.63-1.77-8.64-9.44-.05-29.88-.02-59.77-.02-89.65h-.21Z"/>
  <path class="cls-2" d="M96.58,224.48l58.45-58.45c9.76-9.76,25.72-9.76,35.48,0l58.45,58.45c9.76,9.76,9.76,25.73,0,35.48l-58.45,58.45c-9.76,9.76-25.73,9.76-35.48,0l-58.45-58.45c-9.76-9.76-9.76-25.73,0-35.48h0ZM98.54,224.93c-9.51,9.51-9.51,25.07,0,34.58l56.95,56.95c9.51,9.51,25.07,9.51,34.57,0l56.95-56.95c9.51-9.51,9.51-25.07,0-34.58l-56.95-56.95c-9.51-9.51-25.06-9.51-34.57,0l-56.95,56.95Z"/>
  <path class="cls-1" d="M97.6,172.46s-65.36,62.1-27.26,101.72c38.11,39.62-54.39-54.39-54.39-54.39,0,0-40.74-55.72,7.98-104.44C72.66,66.63,118.38,20.91,118.38,20.91c0,0,39.58-47.04,129.53,0L97.6,172.46Z"/>
  <g>
    <path class="cls-1" d="M76.15,272.32l11.83,11.83c18.58,18.58,29.58,7.92,29.58,7.92l28.62-28.61-12.21-12.21c-4.97-4.97-4.97-13.1,0-18.07l16.77-16.77-44.38-44.38c-5.74,5.63-61.21,61.81-30.2,100.3Z"/>
    <path class="cls-1" d="M271.76,211.35l-11.83-11.83c-18.58-18.58-29.57-7.92-29.57-7.92l-30.18,30.18,11.41,11.41c4.97,4.97,4.97,13.1,0,18.07l-15.21,15.21,45.18,45.18c5.74-5.63,61.21-61.81,30.2-100.3Z"/>
  </g>
  <path class="cls-1" d="M250.31,311.21s65.36-62.1,27.26-101.72c-38.1-39.63,54.39,54.39,54.39,54.39,0,0,40.74,55.72-7.98,104.44-48.72,48.72-94.44,94.45-94.44,94.45,0,0-39.58,47.04-129.54,0l150.31-151.56Z"/>
  <path class="cls-1" d="M142.01,235.06l23.6-23.59c3.94-3.94,10.38-3.94,14.32,0l23.59,23.59c3.94,3.94,3.94,10.38,0,14.32l-23.59,23.59c-3.94,3.94-10.39,3.94-14.32,0l-23.6-23.59c-3.94-3.94-3.94-10.38,0-14.32Z"/>
</svg>