<?xml version="1.0" encoding="UTF-8"?>
<svg id="Layer_1" data-name="Layer 1" xmlns="http://www.w3.org/2000/svg" viewBox="0 0 1280 294.62">
  <defs>
    <style>
      .cls-1 {
        fill: #e2ebde;
        stroke-width: 0px;
      }
    </style>
  </defs>
  <path class="cls-1" d="M1071.47,210.56c0-35.59,2.11-37.28,29.35-30.39,8.58,2.17,17.14,4.43,25.75,6.49,5.87,1.4,8.59,5.05,7.15,10.79-6.96,27.65,21.24,43.17,41.64,42.25,14.9-.68,26.94-8.16,35.39-20.41,7.28-10.54,5.9-20.91-2.55-30.53-11-12.51-24.97-17.06-41.26-17.09-30.95-.05-56.22-13.18-74.92-37.11-28.04-35.89-20.55-81.9,16.78-111.31,40.05-31.56,107.42-29.96,144.72,5,23.5,22.03,30.69,50.36,24.21,81.99-1.28,6.26-4.97,9.08-11.36,7.56-13.72-3.25-27.43-6.57-41.13-9.92-5.5-1.35-9.3-4.85-7.69-10.61,7.59-27.21-21.76-45.24-44.24-41.82-13.21,2.01-24.17,8.01-31.93,19.18-7.92,11.41-7.86,19.46,1.23,30.28,9.56,11.38,21.9,17.24,37.06,17.23,24.43-.02,46.59,6.81,65.31,23.07,41.71,36.23,41.08,87.52-.7,124.27-41.9,36.86-113.97,26.48-145.62-2.71-18.5-17.07-26.28-38.61-27.2-56.21Z"/>
  <path class="cls-1" d="M103.44,1.03c26.92.71,53.16,6.22,75.52,24.19,22.82,18.34,35.11,56.41,27.39,84.66-1.81,6.61-5.19,9.48-12.1,7.77-13.05-3.25-26.12-6.44-39.22-9.47-6.44-1.49-9.09-4.98-9.02-11.82.21-22.83-7.73-34.44-25.94-39.09-21.46-5.48-43.02,2.98-52.83,20.51-5.46,9.75-3.18,18.59,3.36,26.41,9.72,11.64,22.13,17.89,37.75,17.93,27.36.07,51.55,8.56,71.04,28.53,36.19,37.07,32.24,89.41-9.16,120.87-44.35,33.7-113.66,28.17-150.67-13.18C.53,237.1-3.1,211.01,2.23,183.51c1.22-6.29,5.13-8.8,11.54-7.22,13.38,3.29,26.78,6.45,40.15,9.75,6.34,1.56,8.81,5.14,8.19,12.18-2.37,26.87,20.56,46.4,47.27,40.86,7.22-1.5,13.64-4.6,19.49-9,20.94-15.74,20.13-35.91-1.97-50.23-10.05-6.51-21.17-7.88-32.89-8.26-35.17-1.15-62.29-16.98-80-47.35C-1.28,98.02-.19,71.08,16.54,46.11,36.78,15.9,66.12,1.21,103.44,1.03Z"/>
  <path class="cls-1" d="M975.77,127.53c0-21-.22-42,.05-62.99.43-33.66,21.72-58.35,53.46-63.04,7.88-1.16,11.68.5,11.57,9.31-.85,65.92-.08,131.9-2.67,197.75-1.56,39.52-26.87,64.75-62.22,78.76-58.17,23.04-121.14-10.57-134.8-70.83-.94-4.13-1.51-8.42-1.63-12.65-1.93-63.94-1.84-127.91-1.86-191.87,0-11.2,1.6-12.31,13.07-10.2,29.82,5.49,50.07,28.91,50.53,59.08.67,43.94.83,87.89,1.57,131.84.5,29.73,30.34,46.93,54.97,31.89,12.25-7.48,17.73-18.9,17.75-33.07.03-21.32,0-42.65,0-63.97h.21Z"/>
  <path class="cls-1" d="M339.1,159C339.67,65.47,406.25-1.52,485.98.23c28.12.62,54.25,8.87,77.97,24.17,9.48,6.11,9.56,7.69,1.98,15.44-10.77,11.02-21.99,21.63-32.27,33.09-6.19,6.9-12.18,7.87-20.78,5.09-31.07-10.04-58.32-2.06-81.43,20.05-23.4,22.4-28.26,49.03-16.44,79.17,11.45,29.21,32.59,44.13,63.82,45.2,10.58.36,21.08-.38,31.16-3.37,6.3-1.86,10.43-.31,14.78,4.2,11.82,12.29,23.73,24.53,36.17,36.18,6.42,6,5.13,9.34-1.71,13.19-43.88,24.75-89.56,27.99-134.96,6.86-55.34-25.77-82.47-71.46-85.18-120.5Z"/>
  <path class="cls-1" d="M602.98,147.33c0-43.29-.04-86.57.02-129.86.02-15.61,1.96-17.4,17.75-17.44,9.51-.02,19.02-.04,28.53.05,14.74.14,17.27,2.57,17.28,17.2.03,59.68-.03,119.36-.06,179.05,0,7.54.38,15.11-.09,22.62-.55,8.73,3.34,11.36,11.64,11.3,37.05-.27,74.11-.12,111.17-.1,14.26,0,16.69,2.32,16.81,16.42.09,11.15-.08,22.3-.01,33.45.05,8.76-3.76,13.53-12.93,13.53-59.03-.04-118.05-.02-177.08,0-9.71,0-12.98-5.14-12.93-14.4.22-43.94.1-87.88.1-131.83h-.18Z"/>
  <path class="cls-1" d="M240.27,146.66c0-43.28-.02-86.55.01-129.83.01-14.94,1.92-16.77,17.16-16.81,11.47-.02,22.95-.08,34.42.07,12.77.17,15.61,3.17,15.61,16.92.03,81.63-.02,163.27-.04,244.9,0,6.23,0,12.46-.05,18.69-.08,8.35-4.16,12.83-12.68,12.85-13.77.03-27.54.19-41.31-.03-10.58-.17-12.77-2.63-12.79-13.99-.07-44.26-.03-88.52-.03-132.78h-.31Z"/>
</svg>