<?xml version="1.0" encoding="UTF-8"?>
<svg id="Layer_1" data-name="Layer 1" xmlns="http://www.w3.org/2000/svg" viewBox="0 0 1280 1779.47">
  <defs>
    <style>
      .cls-1 {
        fill: #354a9c;
        fill-rule: evenodd;
        stroke-width: 0px;
      }
    </style>
  </defs>
  <path class="cls-1" d="M355.33,825.88l215.06-215.06c35.9-35.9,94.64-35.9,130.55,0l215.06,215.06c35.9,35.89,35.9,94.65,0,130.55l-215.06,215.04c-35.91,35.91-94.65,35.91-130.55.01l-215.06-215.06c-35.9-35.9-35.9-94.66,0-130.55h0ZM362.53,827.55c-34.99,34.99-34.99,92.22,0,127.21l209.52,209.52c34.99,34.97,92.22,34.97,127.2,0l209.53-209.52c34.97-34.99,34.97-92.22,0-127.21l-209.53-209.52c-34.97-34.99-92.21-34.99-127.2,0l-209.52,209.52Z"/>
  <path class="cls-1" d="M359.09,634.51s-240.47,228.46-100.28,374.25c140.2,145.78-200.1-200.11-200.1-200.11,0,0-149.89-205.01,29.36-384.26C267.31,245.15,435.53,76.91,435.53,76.91c0,0,145.62-173.05,476.57,0L359.09,634.51Z"/>
  <g>
    <path class="cls-1" d="M280.17,1001.91l43.52,43.53c68.37,68.37,108.81,29.15,108.81,29.15l105.28-105.27-44.91-44.91c-18.29-18.29-18.29-48.21,0-66.5l61.7-61.71-163.29-163.29c-21.11,20.72-225.2,227.39-111.12,369Z"/>
    <path class="cls-1" d="M999.83,777.56l-43.53-43.53c-68.37-68.37-108.81-29.15-108.81-29.15l-111.03,111.04,41.98,41.98c18.29,18.29,18.29,48.2,0,66.5l-55.95,55.94,166.23,166.21c21.11-20.72,225.19-227.39,111.1-369Z"/>
  </g>
  <path class="cls-1" d="M920.92,1144.96s240.47-228.46,100.27-374.24c-140.19-145.8,200.1,200.09,200.1,200.09,0,0,149.89,205.01-29.35,384.26-179.24,179.25-347.47,347.48-347.47,347.48,0,0-145.63,173.05-476.57,0l553.02-557.6Z"/>
  <path class="cls-1" d="M522.49,864.81l86.82-86.81c14.48-14.5,38.2-14.5,52.7,0l86.81,86.81c14.5,14.5,14.5,38.2,0,52.7l-86.81,86.8c-14.5,14.5-38.22,14.5-52.7,0l-86.82-86.8c-14.48-14.5-14.48-38.2,0-52.7Z"/>
</svg>